<svg width="32" height="33" viewBox="0 0 32 33" fill="none" xmlns="http://www.w3.org/2000/svg">
<rect y="0.300781" width="32" height="32" rx="16" fill="#1D1D1F"/>
<path d="M22.6665 9.63477H9.33317C8.4165 9.63477 7.67484 10.3848 7.67484 11.3014L7.6665 21.3014C7.6665 22.2181 8.4165 22.9681 9.33317 22.9681H22.6665C23.5832 22.9681 24.3332 22.2181 24.3332 21.3014V11.3014C24.3332 10.3848 23.5832 9.63477 22.6665 9.63477ZM22.3332 13.1764L16.4415 16.8598C16.1748 17.0264 15.8248 17.0264 15.5582 16.8598L9.6665 13.1764C9.45817 13.0431 9.33317 12.8181 9.33317 12.5764C9.33317 12.0181 9.9415 11.6848 10.4165 11.9764L15.9998 15.4681L21.5832 11.9764C22.0582 11.6848 22.6665 12.0181 22.6665 12.5764C22.6665 12.8181 22.5415 13.0431 22.3332 13.1764Z" fill="#F5F5F7"/>
</svg>
