<svg width="33" height="33" viewBox="0 0 33 33" fill="none" xmlns="http://www.w3.org/2000/svg">
<ellipse cx="16.9334" cy="16.3008" rx="15.9778" ry="16" fill="#1D1D1F"/>
<path fill-rule="evenodd" clip-rule="evenodd" d="M20.5308 6.98242H13.2266C10.2012 6.98242 7.74854 9.43846 7.74854 12.4681V19.7824C7.74854 22.8121 10.2012 25.2681 13.2266 25.2681H20.5308C23.5563 25.2681 26.0089 22.8121 26.0089 19.7824V12.4681C26.0089 9.43846 23.5563 6.98242 20.5308 6.98242ZM9.57482 12.4688C9.57482 10.449 11.2099 8.81165 13.2269 8.81165H20.531C22.548 8.81165 24.1831 10.449 24.1831 12.4688V19.7831C24.1831 21.8029 22.548 23.4402 20.531 23.4402H13.2269C11.2099 23.4402 9.57482 21.8029 9.57482 19.7831V12.4688ZM16.8784 20.6952C14.3572 20.6952 12.3133 18.6485 12.3133 16.1238C12.3133 13.599 14.3572 11.5523 16.8784 11.5523C19.3996 11.5523 21.4435 13.599 21.4435 16.1238C21.4435 18.6485 19.3996 20.6952 16.8784 20.6952ZM16.8785 18.8663C18.3912 18.8663 19.6175 17.6383 19.6175 16.1235C19.6175 14.6086 18.3912 13.3806 16.8785 13.3806C15.3657 13.3806 14.1394 14.6086 14.1394 16.1235C14.1394 17.6383 15.3657 18.8663 16.8785 18.8663ZM22.3565 11.5508C22.3565 12.0558 21.9477 12.4651 21.4435 12.4651C20.9392 12.4651 20.5305 12.0558 20.5305 11.5508C20.5305 11.0459 20.9392 10.6366 21.4435 10.6366C21.9477 10.6366 22.3565 11.0459 22.3565 11.5508Z" fill="#F5F5F7"/>
</svg>
