<svg width="32" height="33" viewBox="0 0 32 33" fill="none" xmlns="http://www.w3.org/2000/svg">
<path d="M15.9778 0.300781C7.1534 0.300781 0 7.46412 0 16.3008C0 25.1374 7.1534 32.3008 15.9778 32.3008C24.8022 32.3008 31.9556 25.1374 31.9556 16.3008C31.9556 7.46412 24.8022 0.300781 15.9778 0.300781ZM12.0666 22.9324H8.83107V12.5058H12.0666V22.9324ZM10.4288 11.2258C9.40693 11.2258 8.74619 10.5008 8.74619 9.60411C8.74619 8.68911 9.42691 7.98578 10.4705 7.98578C11.514 7.98578 12.1531 8.68911 12.1731 9.60411C12.1731 10.5008 11.514 11.2258 10.4288 11.2258ZM23.8835 22.9324H20.648V17.1541C20.648 15.8091 20.1786 14.8958 19.0086 14.8958C18.1148 14.8958 17.5839 15.5141 17.3492 16.1091C17.2627 16.3208 17.2411 16.6208 17.2411 16.9191V22.9308H14.0039V15.8308C14.0039 14.5291 13.9623 13.4408 13.919 12.5041H16.7301L16.8782 13.9524H16.9431C17.3692 13.2724 18.4128 12.2691 20.1587 12.2691C22.2874 12.2691 23.8835 13.6974 23.8835 16.7674V22.9324Z" fill="#1D1D1F"/>
</svg>
